<svg width="24" height="25" viewBox="0 0 24 25" fill="none" xmlns="http://www.w3.org/2000/svg">
<path d="M18 2.5V4.5M6 2.5V4.5" stroke="white" stroke-width="1.5" stroke-linecap="round" stroke-linejoin="round"/>
<path d="M10 17.5L9.99999 13.8472C9.99999 13.6555 9.86325 13.5 9.69458 13.5H9M13.6297 17.5L14.9842 13.8492C15.0475 13.6785 14.9128 13.5 14.7207 13.5H13" stroke="white" stroke-width="1.5" stroke-linecap="round"/>
<path d="M2.5 12.7432C2.5 8.38594 2.5 6.20728 3.75212 4.85364C5.00424 3.5 7.01949 3.5 11.05 3.5H12.95C16.9805 3.5 18.9958 3.5 20.2479 4.85364C21.5 6.20728 21.5 8.38594 21.5 12.7432V13.2568C21.5 17.6141 21.5 19.7927 20.2479 21.1464C18.9958 22.5 16.9805 22.5 12.95 22.5H11.05C7.01949 22.5 5.00424 22.5 3.75212 21.1464C2.5 19.7927 2.5 17.6141 2.5 13.2568V12.7432Z" stroke="white" stroke-width="1.5" stroke-linecap="round" stroke-linejoin="round"/>
<path d="M6 8.5H18" stroke="white" stroke-width="1.5" stroke-linecap="round" stroke-linejoin="round"/>
</svg>
