<svg width="24" height="25" viewBox="0 0 24 25" fill="none" xmlns="http://www.w3.org/2000/svg">
<path d="M18 2.65625V4.65625M6 2.65625V4.65625" stroke="#072929" stroke-width="1.5" stroke-linecap="round" stroke-linejoin="round"/>
<path d="M10 17.6562L9.99999 14.0035C9.99999 13.8118 9.86325 13.6562 9.69458 13.6562H9M13.6297 17.6562L14.9842 14.0055C15.0475 13.8348 14.9128 13.6562 14.7207 13.6562H13" stroke="#072929" stroke-width="1.5" stroke-linecap="round"/>
<path d="M2.5 12.8995C2.5 8.54219 2.5 6.36353 3.75212 5.00989C5.00424 3.65625 7.01949 3.65625 11.05 3.65625H12.95C16.9805 3.65625 18.9958 3.65625 20.2479 5.00989C21.5 6.36353 21.5 8.54219 21.5 12.8995V13.413C21.5 17.7703 21.5 19.949 20.2479 21.3027C18.9958 22.6563 16.9805 22.6562 12.95 22.6562H11.05C7.01949 22.6562 5.00424 22.6563 3.75212 21.3027C2.5 19.949 2.5 17.7703 2.5 13.413V12.8995Z" stroke="#072929" stroke-width="1.5" stroke-linecap="round" stroke-linejoin="round"/>
<path d="M6 8.65625H18" stroke="#072929" stroke-width="1.5" stroke-linecap="round" stroke-linejoin="round"/>
</svg>
