<svg width="48" height="48" viewBox="0 0 48 48" fill="none" xmlns="http://www.w3.org/2000/svg">
<path d="M5 24C5 15.0433 5 10.565 7.78248 7.78248C10.565 5 15.0433 5 24 5C32.9566 5 37.435 5 40.2176 7.78248C43 10.565 43 15.0433 43 24C43 32.9566 43 37.435 40.2176 40.2176C37.435 43 32.9566 43 24 43C15.0433 43 10.565 43 7.78248 40.2176C5 37.435 5 32.9566 5 24Z" stroke="#072929" stroke-width="1.5"/>
<path d="M16 27.5C16 27.5 19.2 29.325 20.8 32C20.8 32 25.6 21.5 32 18" stroke="#072929" stroke-width="1.5" stroke-linecap="round" stroke-linejoin="round"/>
</svg>
