<svg width="36" height="37" viewBox="0 0 36 37" fill="none" xmlns="http://www.w3.org/2000/svg">
<path d="M3.74988 18.3125C3.74988 11.595 3.74988 8.23623 5.83674 6.14936C7.92361 4.0625 11.2824 4.0625 17.9999 4.0625C24.7173 4.0625 28.0761 4.0625 30.1631 6.14936C32.2499 8.23623 32.2499 11.595 32.2499 18.3125C32.2499 25.03 32.2499 28.3888 30.1631 30.4757C28.0761 32.5625 24.7173 32.5625 17.9999 32.5625C11.2824 32.5625 7.92361 32.5625 5.83674 30.4757C3.74988 28.3888 3.74988 25.03 3.74988 18.3125Z" stroke="#072929" stroke-width="1.5" stroke-linejoin="round"/>
<path d="M24.7499 18.3125C24.7499 22.0405 21.7278 25.0625 17.9999 25.0625C14.272 25.0625 11.2499 22.0405 11.2499 18.3125C11.2499 14.5846 14.272 11.5625 17.9999 11.5625C21.7278 11.5625 24.7499 14.5846 24.7499 18.3125Z" stroke="#072929" stroke-width="1.5"/>
<path d="M26.2615 10.0625H26.248" stroke="#072929" stroke-width="2" stroke-linecap="round" stroke-linejoin="round"/>
</svg>
